<?xml version="1.0" encoding="UTF-8"?>
<svg data-v-4213c516="" version="1.0" xmlns="http://www.w3.org/2000/svg" xmlns:xlink="http://www.w3.org/1999/xlink" width="100%" height="100%" viewBox="0 0 340.000000 250.000000" preserveAspectRatio="xMidYMid meet" color-interpolation-filters="sRGB" class="el-tooltip" style="margin: auto;">  <g data-v-4213c516="" fill="#008ad4" class="icon-text-wrapper icon-svg-group iconsvg" transform="translate(79.6781997680664,69.75397491455078)"><g class="iconsvg-imagesvg" transform="translate(60.321800231933594,0)"><rect fill="#008ad4" fill-opacity="0" stroke-width="2" x="0" y="0" width="60" height="59.99204560519776" class="image-rect"></rect> <svg x="0" y="0" width="60" height="59.99204560519776" filtersec="colorsb1983065092" class="image-svg-svg"><svg xmlns="http://www.w3.org/2000/svg" viewBox="0 0 75.43 75.42"><g><g><path fill="#008ad4" d="M75.42 75.41H51.24l.01-24.17h24.16l.01 24.17z"></path><path fill="#54c3f1" d="M51.24 75.41l-24.17.01.01-24.17 24.17-.01-.01 24.17z"></path><path fill="#a2daf7" d="M27.07 75.42H2.91L2.9 51.25h24.18l-.01 24.17z"></path><path fill="#54c3f1" d="M51.25 27.08h24.16v24.16H51.25z"></path><path fill="#a2daf7" d="M75.42 27.07l-24.16.01-.01-24.18h24.18l-.01 24.17z"></path><path fill="#54c3f1" d="M42.87 42.86H18.68l.02-24.17 24.16-.01.01 24.18zM29.19 11.11H18.1L18.11.03 29.2.02l-.01 11.09z"></path><path fill="#a2daf7" d="M6.61 6.6L0 6.61.01 0h6.6v6.6z"></path><path fill="#54c3f1" d="M3.98 21.39h3.85v3.84H3.98z"></path></g></g></svg></svg> <!----></g> <g transform="translate(0,66.99205017089844)"><g fill-rule="" class="tp-name iconsvg-namesvg"><g><path d="M1.98 0L19.14 0C19.62-0.48 19.68-1.92 18.54-1.92C15.84-1.92 14.28-3.06 14.28-5.94L14.28-16.38C16.50-15.24 18.84-14.46 21.30-14.46C27.54-14.46 36.54-18.36 36.54-27.72C36.54-37.32 29.16-40.20 22.26-40.20L1.98-40.20C1.50-39.72 1.44-38.28 2.58-38.28C5.28-38.28 6.90-37.08 6.90-34.20L6.90-6C6.90-3.12 5.28-1.92 2.58-1.92C1.44-1.92 1.50-0.48 1.98 0ZM16.14-37.68L19.98-37.68C24.54-37.68 28.20-35.22 28.20-27.54C28.20-20.58 24.66-17.88 20.10-17.88C18.12-17.88 16.14-18.12 14.28-18.78L14.28-34.56C14.28-36.06 14.16-37.68 16.14-37.68ZM39.36-24.72L39.36-23.52C40.08-23.58 40.92-23.76 41.70-23.76C42.84-23.76 43.74-23.34 43.74-21.36L43.74-5.82C43.74-3.42 43.32-1.68 40.62-1.68C39.60-1.74 39.54-0.42 40.02 0L54.42 0C54.90-0.48 54.96-1.68 53.82-1.68C51.12-1.68 50.76-3.36 50.76-5.76L50.76-16.50C51.90-19.32 54.06-20.88 55.92-21.06C58.32-21.06 59.46-20.40 61.44-19.02C64.80-21.78 63.48-27.42 58.86-27.42C55.44-27.42 52.62-24.18 50.76-20.22L50.76-25.68C50.82-26.70 50.40-27.24 49.50-27.24C49.38-27.24 49.26-27.24 49.14-27.24C48.90-27.24 48.66-27.24 48.42-27.12C46.20-26.64 42-25.80 39.90-25.32C39.54-25.20 39.36-25.02 39.36-24.72ZM79.32 0.60C87.12 0.60 93-5.40 93-13.80C93-22.20 87.12-27.42 79.32-27.42C71.52-27.42 65.58-21.36 65.58-13.02C65.58-4.62 71.52 0.60 79.32 0.60ZM79.80-1.62C76.20-1.62 74.04-6.84 73.56-13.26C73.26-19.98 74.64-24.72 78.30-25.20C83.40-25.20 84.84-17.46 85.02-13.56C85.32-6.84 83.94-2.10 80.28-1.62ZM99.72-2.16C99.72-0.30 99.90 0.60 101.04 0.60C102.36 0.60 103.80-1.50 105.72-1.50C106.14-1.50 106.56-1.38 106.98-1.14C108.72 0 110.76 0.60 113.22 0.60C120.66 0.60 126.60-5.40 126.60-13.80C126.60-22.14 121.86-27.42 113.46-27.42C111.24-27.24 108.84-26.10 106.74-24.36L106.74-41.34C106.80-42.36 106.32-42.90 105.42-42.90C105.12-42.90 104.82-42.84 104.40-42.78C102.12-42.30 98.04-41.64 95.94-40.98C95.58-40.86 95.40-40.68 95.40-40.38L95.40-39C96.18-39.18 97.08-39.36 97.86-39.36C98.88-39.36 99.72-38.94 99.72-36.84ZM106.68-20.16C107.64-22.08 109.38-24.72 111.78-24.72C115.32-24.72 118.74-20.58 119.04-13.80C119.34-7.14 116.88-1.86 113.10-1.68C109.74-1.68 107.70-3.72 106.68-6.78ZM130.56-12.78C130.56-3.66 137.10 0.60 143.82 0.60C148.80 0.60 153.30-2.16 155.16-7.02C155.52-7.92 154.14-8.88 153.54-8.88C151.92-5.52 149.64-3.96 147.06-3.90C141.54-3.90 138.12-8.88 137.64-13.92L154.32-13.98C156.06-13.98 155.82-15.18 155.82-15.78C155.34-22.26 150.30-27.42 144.12-27.42C135.90-27.42 130.56-20.94 130.56-12.78ZM137.58-16.68C137.88-21 139.86-24.84 142.98-25.14C147.48-25.14 148.50-20.34 148.68-16.68ZM158.34-24.72L158.34-23.52C159.06-23.58 159.90-23.76 160.68-23.76C161.82-23.76 162.72-23.34 162.72-21.36L162.72-5.82C162.72-3.42 162.30-1.68 159.60-1.68C158.58-1.74 158.52-0.42 159.00 0L173.40 0C173.88-0.48 173.94-1.68 172.80-1.68C170.10-1.68 169.74-3.36 169.74-5.76L169.74-16.50C170.88-19.32 173.04-20.88 174.90-21.06C177.30-21.06 178.44-20.40 180.42-19.02C183.78-21.78 182.46-27.42 177.84-27.42C174.42-27.42 171.60-24.18 169.74-20.22L169.74-25.68C169.80-26.70 169.38-27.24 168.48-27.24C168.36-27.24 168.24-27.24 168.12-27.24C167.88-27.24 167.64-27.24 167.40-27.12C165.18-26.64 160.98-25.80 158.88-25.32C158.52-25.20 158.34-25.02 158.34-24.72Z" transform="translate(-1.6551440363372, 42.9)"></path></g> <!----> <!----> <!----> <!----> <!----> <!----> <g fill="#008ad4" transform="translate(183.6436004638672,0)"></g></g> <!----></g></g></svg>
